<svg width="123" height="24" viewBox="0 0 123 24" fill="none" xmlns="http://www.w3.org/2000/svg">
<path d="M0 7.11744C0 7.05747 0.114732 6.9975 0.275357 6.9975H2.29464C2.43232 6.9975 2.57 7.04747 2.57 7.11744V16.8826C2.57 16.9425 2.45527 17.0025 2.29464 17.0025H0.275357C0.137679 17.0025 0 16.9525 0 16.8826V7.11744Z" fill="white"/>
<path d="M5.3228 3.23976C5.3228 3.11988 5.43753 3 5.59816 3H7.61744C7.75512 3 7.8928 3.0999 7.8928 3.23976V22.7602C7.8928 22.8801 7.77807 23 7.61744 23H5.59816C5.46048 23 5.3228 22.9001 5.3228 22.7602V3.23976Z" fill="white"/>
<path d="M10.6451 3.17985C10.6451 3.08993 10.7599 3 10.9205 3H12.9398C13.0775 3 13.2151 3.07494 13.2151 3.17985V17.8226C13.2151 17.9126 13.1004 18.0025 12.9398 18.0025H10.9205C10.7828 18.0025 10.6451 17.9276 10.6451 17.8226V3.17985Z" fill="white"/>
<path d="M15.9679 6.17835C15.9679 6.08843 16.0827 5.9985 16.2433 5.9985H18.2626C18.4003 5.9985 18.5379 6.07344 18.5379 6.17835V20.8212C18.5379 20.9111 18.4232 21.001 18.2626 21.001H16.2433C16.1056 21.001 15.9679 20.9261 15.9679 20.8212V6.17835Z" fill="white"/>
<path d="M21.3147 11.2111C21.3147 11.0733 21.4295 10.9355 21.5901 10.9355H23.6094C23.7471 10.9355 23.8847 11.0503 23.8847 11.2111V15.7823C23.8847 15.9201 23.77 16.0579 23.6094 16.0579H21.5901C21.4524 16.0579 21.3147 15.9431 21.3147 15.7823V11.2111Z" fill="white"/>
<path d="M40.08 14.912C40.08 15.5947 39.9147 16.176 39.584 16.656C39.2533 17.136 38.7787 17.5093 38.16 17.776C37.5413 18.032 36.8053 18.16 35.952 18.16C35.536 18.16 35.136 18.1333 34.752 18.08C34.368 18.0373 34.0107 17.9733 33.68 17.888C33.3493 17.8027 33.056 17.696 32.8 17.568V15.936C33.2267 16.128 33.728 16.304 34.304 16.464C34.88 16.6133 35.4667 16.688 36.064 16.688C36.576 16.688 37.0027 16.6187 37.344 16.48C37.6853 16.3413 37.9413 16.1493 38.112 15.904C38.2827 15.6587 38.368 15.3707 38.368 15.04C38.368 14.688 38.2773 14.3947 38.096 14.16C37.9253 13.9147 37.6533 13.6907 37.28 13.488C36.9173 13.2747 36.4267 13.0507 35.808 12.816C35.3813 12.656 34.992 12.48 34.64 12.288C34.2987 12.0853 33.9947 11.8507 33.728 11.584C33.472 11.3173 33.2747 11.008 33.136 10.656C32.9973 10.304 32.928 9.89333 32.928 9.424C32.928 8.79467 33.0827 8.256 33.392 7.808C33.712 7.36 34.1493 7.01867 34.704 6.784C35.2587 6.53867 35.904 6.416 36.64 6.416C37.2587 6.416 37.8293 6.48 38.352 6.608C38.8853 6.72533 39.392 6.89067 39.872 7.104L39.328 8.528C38.8907 8.34667 38.448 8.19733 38 8.08C37.552 7.96267 37.0827 7.904 36.592 7.904C36.1653 7.904 35.808 7.968 35.52 8.096C35.232 8.224 35.0133 8.4 34.864 8.624C34.7253 8.848 34.656 9.10933 34.656 9.408C34.656 9.76 34.736 10.0533 34.896 10.288C35.056 10.5227 35.312 10.7413 35.664 10.944C36.016 11.136 36.48 11.3493 37.056 11.584C37.696 11.8293 38.24 12.096 38.688 12.384C39.1467 12.672 39.4933 13.0187 39.728 13.424C39.9627 13.8187 40.08 14.3147 40.08 14.912ZM45.2289 16.784C45.4529 16.784 45.6822 16.7627 45.9169 16.72C46.1515 16.6773 46.3542 16.6293 46.5249 16.576V17.856C46.3435 17.9413 46.0982 18.0107 45.7889 18.064C45.4795 18.128 45.1702 18.16 44.8609 18.16C44.3915 18.16 43.9595 18.08 43.5649 17.92C43.1809 17.76 42.8715 17.4827 42.6369 17.088C42.4022 16.6933 42.2849 16.144 42.2849 15.44V10.672H41.0849V9.904L42.3489 9.264L42.9409 7.44H43.9809V9.376H46.4449V10.672H43.9809V15.408C43.9809 15.8773 44.0929 16.224 44.3169 16.448C44.5515 16.672 44.8555 16.784 45.2289 16.784ZM55.8499 13.68C55.8499 14.3947 55.7539 15.0293 55.5619 15.584C55.3699 16.1387 55.0979 16.608 54.7459 16.992C54.3939 17.376 53.9672 17.6693 53.4659 17.872C52.9645 18.064 52.3992 18.16 51.7699 18.16C51.1939 18.16 50.6605 18.064 50.1699 17.872C49.6792 17.6693 49.2525 17.376 48.8899 16.992C48.5379 16.608 48.2605 16.1387 48.0579 15.584C47.8552 15.0293 47.7539 14.3893 47.7539 13.664C47.7539 12.7147 47.9139 11.9093 48.2339 11.248C48.5645 10.5867 49.0339 10.0853 49.6419 9.744C50.2605 9.392 50.9859 9.216 51.8179 9.216C52.6072 9.216 53.3005 9.392 53.8979 9.744C54.5059 10.0853 54.9805 10.5867 55.3219 11.248C55.6739 11.9093 55.8499 12.72 55.8499 13.68ZM49.4979 13.68C49.4979 14.32 49.5779 14.8747 49.7379 15.344C49.8979 15.8027 50.1485 16.1547 50.4899 16.4C50.8312 16.6453 51.2685 16.768 51.8019 16.768C52.3352 16.768 52.7725 16.6453 53.1139 16.4C53.4552 16.1547 53.7059 15.8027 53.8659 15.344C54.0259 14.8747 54.1059 14.32 54.1059 13.68C54.1059 13.0187 54.0205 12.464 53.8499 12.016C53.6899 11.568 53.4392 11.2267 53.0979 10.992C52.7672 10.7467 52.3299 10.624 51.7859 10.624C50.9859 10.624 50.4045 10.8907 50.0419 11.424C49.6792 11.9573 49.4979 12.7093 49.4979 13.68ZM61.4719 18.16C60.6825 18.16 59.9892 18.0053 59.3919 17.696C58.7945 17.3867 58.3305 16.9067 57.9999 16.256C57.6692 15.5947 57.5039 14.7573 57.5039 13.744C57.5039 12.6773 57.6799 11.8133 58.0319 11.152C58.3945 10.4907 58.8799 10.0053 59.4879 9.696C60.1065 9.376 60.8105 9.216 61.5999 9.216C62.0799 9.216 62.5279 9.26933 62.9439 9.376C63.3705 9.472 63.7225 9.584 63.9999 9.712L63.4879 11.088C63.1892 10.9707 62.8692 10.8693 62.5279 10.784C62.1972 10.6987 61.8825 10.656 61.5839 10.656C61.0505 10.656 60.6079 10.7733 60.2559 11.008C59.9145 11.232 59.6585 11.5733 59.4879 12.032C59.3279 12.48 59.2479 13.0453 59.2479 13.728C59.2479 14.3787 59.3332 14.928 59.5039 15.376C59.6745 15.824 59.9252 16.1653 60.2559 16.4C60.5972 16.624 61.0185 16.736 61.5199 16.736C61.9999 16.736 62.4212 16.6827 62.7839 16.576C63.1465 16.4693 63.4879 16.3307 63.8079 16.16V17.632C63.4985 17.8133 63.1625 17.9467 62.7999 18.032C62.4372 18.1173 61.9945 18.16 61.4719 18.16ZM67.5236 11.92C67.5236 12.144 67.513 12.4 67.4916 12.688C67.481 12.976 67.465 13.2427 67.4436 13.488H67.4916C67.577 13.3813 67.6783 13.2533 67.7956 13.104C67.9236 12.944 68.0516 12.784 68.1796 12.624C68.3076 12.464 68.425 12.3253 68.5316 12.208L71.1716 9.376H73.1396L69.6676 13.072L73.3636 18H71.3636L68.5156 14.144L67.5236 14.976V18H65.8436V5.84H67.5236V11.92ZM83.8851 18H82.1571V12.784H76.7011V18H74.9731V6.576H76.7011V11.312H82.1571V6.576H83.8851V18ZM94.3499 13.68C94.3499 14.3947 94.2539 15.0293 94.0619 15.584C93.8699 16.1387 93.5979 16.608 93.2459 16.992C92.8939 17.376 92.4672 17.6693 91.9659 17.872C91.4645 18.064 90.8992 18.16 90.2699 18.16C89.6939 18.16 89.1605 18.064 88.6699 17.872C88.1792 17.6693 87.7525 17.376 87.3899 16.992C87.0379 16.608 86.7605 16.1387 86.5579 15.584C86.3552 15.0293 86.2539 14.3893 86.2539 13.664C86.2539 12.7147 86.4139 11.9093 86.7339 11.248C87.0645 10.5867 87.5339 10.0853 88.1419 9.744C88.7605 9.392 89.4859 9.216 90.3179 9.216C91.1072 9.216 91.8005 9.392 92.3979 9.744C93.0059 10.0853 93.4805 10.5867 93.8219 11.248C94.1739 11.9093 94.3499 12.72 94.3499 13.68ZM87.9979 13.68C87.9979 14.32 88.0779 14.8747 88.2379 15.344C88.3979 15.8027 88.6485 16.1547 88.9899 16.4C89.3312 16.6453 89.7685 16.768 90.3019 16.768C90.8352 16.768 91.2725 16.6453 91.6139 16.4C91.9552 16.1547 92.2059 15.8027 92.3659 15.344C92.5259 14.8747 92.6059 14.32 92.6059 13.68C92.6059 13.0187 92.5205 12.464 92.3499 12.016C92.1899 11.568 91.9392 11.2267 91.5979 10.992C91.2672 10.7467 90.8299 10.624 90.2859 10.624C89.4859 10.624 88.9045 10.8907 88.5419 11.424C88.1792 11.9573 87.9979 12.7093 87.9979 13.68ZM103.924 9.376V18H102.564L102.324 16.864H102.244C102.063 17.1627 101.828 17.408 101.54 17.6C101.252 17.792 100.937 17.9307 100.596 18.016C100.255 18.112 99.9025 18.16 99.5399 18.16C98.8679 18.16 98.2972 18.0533 97.8279 17.84C97.3692 17.616 97.0172 17.2747 96.7719 16.816C96.5372 16.3467 96.4199 15.7493 96.4199 15.024V9.376H98.1319V14.768C98.1319 15.44 98.2705 15.9413 98.5479 16.272C98.8359 16.6027 99.2785 16.768 99.8759 16.768C100.473 16.768 100.943 16.6507 101.284 16.416C101.625 16.1813 101.865 15.84 102.004 15.392C102.153 14.9333 102.228 14.384 102.228 13.744V9.376H103.924ZM112.306 15.568C112.306 16.1333 112.167 16.608 111.89 16.992C111.613 17.376 111.213 17.6693 110.69 17.872C110.167 18.064 109.538 18.16 108.802 18.16C108.194 18.16 107.671 18.112 107.234 18.016C106.807 17.9307 106.413 17.8027 106.05 17.632V16.144C106.434 16.3253 106.877 16.4907 107.378 16.64C107.879 16.7787 108.37 16.848 108.85 16.848C109.49 16.848 109.949 16.7467 110.226 16.544C110.514 16.3413 110.658 16.0693 110.658 15.728C110.658 15.536 110.605 15.3653 110.498 15.216C110.391 15.056 110.189 14.896 109.89 14.736C109.602 14.5653 109.175 14.3733 108.61 14.16C108.066 13.936 107.602 13.7173 107.218 13.504C106.834 13.28 106.541 13.0187 106.338 12.72C106.135 12.4107 106.034 12.016 106.034 11.536C106.034 10.7893 106.333 10.2187 106.93 9.824C107.538 9.41867 108.338 9.216 109.33 9.216C109.853 9.216 110.343 9.26933 110.802 9.376C111.271 9.472 111.725 9.62133 112.162 9.824L111.602 11.12C111.357 11.0027 111.101 10.9067 110.834 10.832C110.578 10.7467 110.317 10.6773 110.05 10.624C109.794 10.5707 109.527 10.544 109.25 10.544C108.738 10.544 108.349 10.624 108.082 10.784C107.815 10.944 107.682 11.168 107.682 11.456C107.682 11.6587 107.741 11.8347 107.858 11.984C107.986 12.1333 108.205 12.2827 108.514 12.432C108.823 12.5813 109.245 12.7627 109.778 12.976C110.311 13.1787 110.765 13.3867 111.138 13.6C111.522 13.8133 111.81 14.0747 112.002 14.384C112.205 14.6933 112.306 15.088 112.306 15.568ZM117.72 9.216C118.477 9.216 119.128 9.376 119.672 9.696C120.216 10.0053 120.632 10.4533 120.92 11.04C121.219 11.6267 121.368 12.32 121.368 13.12V14.048H115.576C115.597 14.9333 115.827 15.6107 116.264 16.08C116.712 16.5493 117.336 16.784 118.136 16.784C118.691 16.784 119.181 16.736 119.608 16.64C120.045 16.5333 120.493 16.3787 120.952 16.176V17.584C120.525 17.776 120.088 17.92 119.64 18.016C119.203 18.112 118.68 18.16 118.072 18.16C117.24 18.16 116.504 17.9947 115.864 17.664C115.224 17.3333 114.723 16.8427 114.36 16.192C114.008 15.5307 113.832 14.72 113.832 13.76C113.832 12.7893 113.992 11.968 114.312 11.296C114.643 10.624 115.096 10.112 115.672 9.76C116.259 9.39733 116.941 9.216 117.72 9.216ZM117.72 10.528C117.112 10.528 116.621 10.7253 116.248 11.12C115.885 11.5147 115.672 12.0747 115.608 12.8H119.672C119.672 12.352 119.603 11.9573 119.464 11.616C119.325 11.2747 119.112 11.008 118.824 10.816C118.536 10.624 118.168 10.528 117.72 10.528Z" fill="white"/>
</svg>
